Coordinates
version=1
nRows=6
nColumns=63
inDegrees=yes

Units are S.I. units (second, meters, Newtons, ...)
If the header above contains a line with 'inDegrees', this indicates whether rotational values are in degrees (yes) or radians (no).

endheader
time	pelvis_tilt	pelvis_list	pelvis_rotation	pelvis_tx	pelvis_ty	pelvis_tz	hip_flexion_r	hip_adduction_r	hip_rotation_r	knee_angle_r	knee_angle_r_beta	ankle_angle_r	subtalar_angle_r	mtp_angle_r	hip_flexion_l	hip_adduction_l	hip_rotation_l	knee_angle_l	knee_angle_l_beta	ankle_angle_l	subtalar_angle_l	mtp_angle_l	L5_S1_Flex_Ext	L5_S1_Lat_Bending	L5_S1_axial_rotation	L4_L5_Flex_Ext	L4_L5_Lat_Bending	L4_L5_axial_rotation	L3_L4_Flex_Ext	L3_L4_Lat_Bending	L3_L4_axial_rotation	L2_L3_Flex_Ext	L2_L3_Lat_Bending	L2_L3_axial_rotation	L1_L2_Flex_Ext	L1_L2_Lat_Bending	L1_L2_axial_rotation	L1_T12_Flex_Ext	L1_T12_Lat_Bending	L1_T12_axial_rotation	Abs_r3	Abs_r2	Abs_r1	Abs_t1	Abs_t2	neck_flexion	neck_bending	neck_rotation	arm_flex_r	arm_add_r	arm_rot_r	elbow_flex_r	pro_sup_r	wrist_flex_r	wrist_dev_r	arm_flex_l	arm_add_l	arm_rot_l	elbow_flex_l	pro_sup_l	wrist_flex_l	wrist_dev_l
      0.41666667	    -16.84743220	      3.45217932	   -103.82459681	     -0.06470269	      0.96548252	     -1.18289854	     35.45308180	     -5.36507254	    -14.43965793	     70.86832596	      1.23688562	     21.77485334	     -1.78277123	      0.00000000	     35.90844013	    -12.74538804	     13.18320955	     59.25545011	      1.03420270	     20.30854034	    -18.77703024	      0.00000000	     -0.55296180	     -1.40370566	     -0.54059123	     -1.02690535	     -1.86692853	     -0.57437818	     -0.90846093	     -3.41296994	     -0.57437818	     -0.63198004	     -3.41296994	     -0.47301733	     -0.51348032	     -2.86243658	     -0.43923038	     -0.31596237	     -2.17434007	     -0.40544342	     -3.94975081	    -15.87899918	     -3.00660625	      0.00000000	      0.00000000	      0.00000000	      0.00000000	      0.00000001	      0.03324882	    -32.26460981	    -26.10380849	    101.83167485	     71.91064716	      0.00000000	      4.73639986	     -6.57528795	    -34.31605322	     -0.18368922	     33.84436908	     62.46755695	      0.00000000	      4.73639986
      0.43333333	    -17.56415548	      3.27307460	   -103.47311521	     -0.06684488	      0.96532311	     -1.17283335	     35.55496831	     -6.85792883	    -14.12814666	     68.22641187	      1.19077552	     20.21776626	     -1.33287520	      0.00000000	     35.27795096	    -13.38754195	     13.34131334	     59.65399605	      1.04115864	     20.50329258	    -18.74721890	      0.00000000	     -0.53178585	     -1.44997770	     -0.65918593	     -0.98757951	     -1.92847034	     -0.70038505	     -0.87367098	     -3.52547578	     -0.70038505	     -0.60777805	     -3.52547578	     -0.57678769	     -0.49381634	     -2.95679453	     -0.53558857	     -0.30386244	     -2.24601546	     -0.49438945	     -3.79849317	    -16.40243774	     -3.66619441	      0.00000000	      0.00000000	      0.00000000	      0.00000000	      0.00000001	     -0.31486541	    -33.01663392	    -26.83049484	    102.22598709	     71.92943233	      0.00000000	      4.73785951	     -6.79466763	    -35.06663648	     -0.40266228	     33.68562291	     62.39479621	      0.00000000	      4.73785951
      0.45000000	    -18.93305173	      3.37390789	   -102.46773951	     -0.06847737	      0.96436045	     -1.16215345	     35.31197699	     -7.79705673	    -14.54422499	     65.30897292	      1.13985661	     17.28871829	     -2.63519753	      0.00000000	     35.31864979	    -14.39619665	     14.44501318	     60.53438082	      1.05652426	     20.86800891	    -18.62031831	      0.00000000	     -0.55790114	     -1.40214060	     -0.55230878	     -1.03607821	     -1.86484699	     -0.58682808	     -0.91657578	     -3.40916464	     -0.58682808	     -0.63762521	     -3.40916464	     -0.48327019	     -0.51806700	     -2.85924510	     -0.44875089	     -0.31878471	     -2.17191578	     -0.41423159	     -3.98503205	    -15.86129485	     -3.07177576	      0.00000000	      0.00000000	      0.00000000	      0.00000000	      0.00000001	     -4.01420444	    -33.24051233	    -31.82816762	    104.79569849	     72.74138655	      0.00000000	      4.77008549	     -5.40121256	    -34.82346842	     -1.54060292	     34.19593520	     61.73402680	      0.00000000	      4.77008549
      0.46666667	    -20.15595593	      3.10366144	   -101.52584429	     -0.07030326	      0.96387172	     -1.15189960	     34.69996659	     -8.80656823	    -14.72413106	     62.67005311	      1.09379877	     15.22620094	     -3.00843558	      0.00000000	     34.98888025	    -15.33195122	     15.32597024	     61.37607458	      1.07121458	     21.38084313	    -18.59381197	      0.00000000	     -0.56118765	     -1.38161935	     -0.66261175	     -1.04218159	     -1.83755374	     -0.70402498	     -0.92197519	     -3.35926929	     -0.70402498	     -0.64138137	     -3.35926929	     -0.57978528	     -0.52111885	     -2.81739818	     -0.53837204	     -0.32066262	     -2.14012837	     -0.49695881	     -4.00850727	    -15.62915441	     -3.68524775	      0.00000000	      0.00000000	      0.00000000	      0.00000000	      0.00000001	     -4.84687524	    -33.82846253	    -33.34745110	    105.24264147	     72.88257053	      0.00000000	      4.77686599	     -5.57701605	    -35.23276438	     -1.77640850	     34.28654945	     61.68063024	      0.00000000	      4.77686599
      0.48333333	    -21.35423324	      2.85477137	   -100.63550759	     -0.07227363	      0.96355829	     -1.14225568	     34.12078984	     -9.65605217	    -14.75452408	     60.20035310	      1.05069437	     13.60247193	     -2.90799376	      0.00000000	     34.73431020	    -16.30406828	     16.19806362	     62.16986123	      1.08506877	     22.01037241	    -18.61956781	      0.00000000	     -0.55625414	     -1.36527004	     -0.73336610	     -1.03301956	     -1.81580916	     -0.77920148	     -0.91386993	     -3.31951758	     -0.77920148	     -0.63574286	     -3.31951758	     -0.64169533	     -0.51653759	     -2.78405867	     -0.59585995	     -0.31784362	     -2.11480329	     -0.55002457	     -3.97326770	    -15.44420776	     -4.07876222	      0.00000000	      0.00000000	      0.00000000	      0.00000000	      0.00000001	     -5.70070249	    -34.23750574	    -34.96054651	    105.57526484	     72.97902147	      0.00000000	      4.78155427	     -5.72560725	    -35.59663983	     -2.39447492	     34.45674553	     61.57508667	      0.00000000	      4.78155427
      0.50000000	    -22.81249715	      2.94909803	    -99.71434109	     -0.07448397	      0.96294353	     -1.13347113	     33.82871241	     -9.94148538	    -14.73795782	     57.74666188	      1.00786938	     12.37637049	     -3.07423502	      0.00000000	     35.01185368	    -17.60192757	     17.31665243	     62.95560298	      1.09878255	     22.67640253	    -18.60711737	      0.00000000	     -0.54960216	     -1.30826932	     -0.67393211	     -1.02066617	     -1.73999820	     -0.71605287	     -0.90294138	     -3.18092603	     -0.71605287	     -0.62814031	     -3.18092603	     -0.58969060	     -0.51036056	     -2.66782280	     -0.54756984	     -0.31404267	     -2.02650918	     -0.50544908	     -3.92575325	    -14.79940422	     -3.74820822	      0.00000000	      0.00000000	      0.00000000	      0.00000000	      0.00000000	     -7.85842802	    -34.55337545	    -38.48151899	    106.54207323	     73.35595834	      0.00000000	      4.79624133	     -5.28303213	    -35.46870671	     -4.18374889	     35.00892079	     61.43267494	      0.00000000	      4.79624133
